<svg xmlns="http://www.w3.org/2000/svg" viewBox="0 0 700 619"><defs><style>.cls-1{fill:#fcedf2;}.cls-2{fill:#ffb37a;}.cls-3{fill:#3e667a;}.cls-4{fill:#eb697f;}.cls-5{fill:#f2ced5;}</style></defs><g id="Layer_2" data-name="Layer 2"><g id="Layer_1-2" data-name="Layer 1"><rect class="cls-1" width="700" height="619"/><polygon class="cls-2" points="277.53 234.01 318.03 234.01 265.95 300.01 318.05 366.01 277.68 366.01 224.59 300.01 277.53 234.01"/><polygon class="cls-3" points="268.98 234 309.48 234 257.4 300 309.5 366 269.13 366 216.04 300 268.98 234"/><polygon class="cls-2" points="422.48 367 381.9 367 434.07 300.5 381.89 234 422.32 234 475.51 300.5 422.48 367"/><polygon class="cls-3" points="430.83 367 390.25 367 442.42 300.5 390.24 234 430.68 234 483.86 300.5 430.83 367"/><path class="cls-4" d="M281.23,300.58s27.14-34.86,70.3-34.58,67,34.58,67,34.58Z"/><path class="cls-4" d="M418.5,300.58s-27.18,35.7-70.4,35.42S281,300.58,281,300.58Z"/><circle class="cls-5" cx="350.19" cy="300.58" r="29.52"/><circle class="cls-4" cx="332.9" cy="284.98" r="14.76"/></g></g></svg>